<?xml version="1.0" encoding="utf-8"?>
<!-- Generator: Adobe Illustrator 19.2.1, SVG Export Plug-In . SVG Version: 6.00 Build 0)  -->
<svg version="1.1" id="Layer_1" xmlns="http://www.w3.org/2000/svg" xmlns:xlink="http://www.w3.org/1999/xlink" x="0px" y="0px"
	 viewBox="0 0 800 800" style="enable-background:new 0 0 800 800;" xml:space="preserve">
<style type="text/css">
	.st0{fill:#27272A;}
	.st1{fill:#BB4D00;}
</style>
<g>
	<path class="st0" d="M742.9,180.6c-4.4-13.1-18.5-20.2-31.6-15.8l-8.8,2.9c-0.4,0.1-0.9,0.3-1.3,0.4c-20.9,7-38.5,12.8-52.4,19.3
		c-14.7,6.9-27.5,15.4-37.2,28.8c-9.7,13.5-13.7,28.3-15.6,44.5c-1.7,15.2-1.7,33.8-1.7,55.8v88.6c0,47.8-0.1,81.2-3.4,106.4
		c-3.3,24.5-9.3,37.4-18.5,46.6c-9.2,9.2-22.2,15.2-46.6,18.5c-25.2,3.4-58.5,3.4-106.4,3.4H185.8c-13.8,0-25,11.2-25,25
		c0,13.8,11.2,25,25,25H421c45.6,0,82.3,0,111.2-3.9c30-4,55.3-12.7,75.3-32.7c20.1-20.1,28.7-45.3,32.7-75.3
		c3.9-28.9,3.9-65.6,3.9-111.2v-89.1c0-23.8,0-39.5,1.4-51.5c1.3-11.4,3.6-16.9,6.5-20.9c2.9-4,7.4-7.9,17.8-12.7
		c11-5.1,25.9-10.1,48.4-17.6l8.8-2.9C740.2,207.9,747.2,193.7,742.9,180.6z"/>
	<path class="st0" d="M535.8,688.5c-27.6,0-50,22.4-50,50s22.4,50,50,50c27.6,0,50-22.4,50-50S563.5,688.5,535.8,688.5z"/>
	<path class="st0" d="M185.8,738.5c0-27.6,22.4-50,50-50c27.6,0,50,22.4,50,50c0,27.6-22.4,50-50,50
		C208.2,788.5,185.8,766.1,185.8,738.5z"/>
</g>
<g>
	<path class="st1" d="M363.3,382.8h-74.2v176.4H169.4V67.8h193.9c120.4,0,180.6,67.9,180.6,158.2
		C543.9,307.2,488.6,382.8,363.3,382.8z M354.2,287.6c47.6,0,67.9-23.8,67.9-61.6s-20.3-61.6-67.9-61.6h-65.1v123.2H354.2z"/>
</g>
</svg>
