<svg id="Layer_1" data-name="Layer 1" xmlns="http://www.w3.org/2000/svg" viewBox="0 0 872.394 872.394"><defs><style>.cls-1{fill:#f3f1f1;stroke:#e8e4e3;stroke-linecap:round;stroke-miterlimit:10;stroke-width:22px;}.cls-2{fill:#27272a;}.cls-3{fill:#bb4d00;}</style></defs><title>LogoIcon</title><rect class="cls-1" x="11" y="11" width="850.394" height="850.394" rx="192.277" ry="192.277"/><path class="cls-2" d="M1207.659,602.2a24.954,24.954,0,0,0-31.6-15.8l-8.8,2.9c-0.4.1-.9,0.3-1.3,0.4-20.9,7-38.5,12.8-52.4,19.3-14.7,6.9-27.5,15.4-37.2,28.8-9.7,13.5-13.7,28.3-15.6,44.5-1.7,15.2-1.7,33.8-1.7,55.8v88.6c0,47.8-.1,81.2-3.4,106.4-3.3,24.5-9.3,37.4-18.5,46.6s-22.2,15.2-46.6,18.5c-25.2,3.4-58.5,3.4-106.4,3.4h-233.6a25,25,0,0,0,0,50h235.2c45.6,0,82.3,0,111.2-3.9,30-4,55.3-12.7,75.3-32.7,20.1-20.1,28.7-45.3,32.7-75.3,3.9-28.9,3.9-65.6,3.9-111.2V739.4c0-23.8,0-39.5,1.4-51.5,1.3-11.4,3.6-16.9,6.5-20.9s7.4-7.9,17.8-12.7c11-5.1,25.9-10.1,48.4-17.6l8.8-2.9A24.968,24.968,0,0,0,1207.659,602.2Z" transform="translate(-439.044 -401.552)"/><path class="cls-2" d="M1000.559,1110.1a50,50,0,1,0,50,50A50.018,50.018,0,0,0,1000.559,1110.1Z" transform="translate(-439.044 -401.552)"/><path class="cls-2" d="M650.559,1160.1a50,50,0,1,1,50,50A50.018,50.018,0,0,1,650.559,1160.1Z" transform="translate(-439.044 -401.552)"/><path class="cls-3" d="M828.059,804.4h-74.2V980.8h-119.7V489.4h193.9c120.4,0,180.6,67.9,180.6,158.2C1008.659,728.8,953.359,804.4,828.059,804.4Zm-9.1-95.2c47.6,0,67.9-23.8,67.9-61.6s-20.3-61.6-67.9-61.6h-65.1V709.2h65.1Z" transform="translate(-439.044 -401.552)"/></svg>